Coordinates
nRows=236
nColumns=2
inDegrees=yes
endheader
time	ankle_angle_r	
6.3871	 -0.457764	
6.42036	 -0.411987	
6.45363	 -0.457764	
6.4869	 -0.414970	
6.52016	 -0.427246	
6.55343	 -0.443803	
6.58669	 -0.441304	
6.61996	 -0.442505	
6.65323	 -0.459779	
6.68649	 -0.458675	
6.71976	 -0.459393	
6.75302	 -0.517363	
6.78629	 -0.471780	
6.81956	 -0.488806	
6.85282	 -0.534058	
6.88609	 -0.473354	
6.91935	 -0.519033	
6.95262	 -0.534195	
6.98589	 -0.473063	
7.01915	 -0.533946	
7.05242	 -0.549164	
7.08569	 -0.503291	
7.11895	 -0.519145	
7.15222	 -0.533615	
7.18548	 -0.488281	
7.21875	 -0.548045	
7.25202	 -0.548584	
7.28528	 -0.489110	
7.31855	 -0.534983	
7.35181	 -0.564575	
7.38508	 -0.516560	
7.41835	 -0.549316	
7.45161	 -0.561950	
7.48488	 -0.489691	
7.51815	 -0.537069	
7.55141	 -0.564575	
7.58468	 -0.528960	
7.61794	 -0.549316	
7.65121	 -0.562683	
7.68448	 -0.516809	
7.71774	 -0.549316	
7.75101	 -0.564575	
7.78427	 -0.516519	
7.81754	 -0.549316	
7.85081	 -0.549316	
7.88407	 -0.528919	
7.91734	 -0.549316	
7.9506	 -0.549316	
7.98387	 -0.531198	
8.01714	 -0.549316	
8.0504	 -0.564575	
8.08367	 -0.509839	
8.11694	 -0.530811	
8.1502	 -0.552659	
8.18347	 -0.527178	
8.21673	 -0.537594	
8.25	 -0.556583	
8.28327	 -0.507270	
8.31653	 -0.545490	
8.3498	 -0.522722	
8.38306	 -0.507560	
8.41633	 -0.556342	
8.4496	 -0.485662	
8.48286	 -0.503540	
8.51613	 -0.549316	
8.5494	 -0.506294	
8.58266	 -0.488281	
8.61593	 -0.534058	
8.64919	 -0.488281	
8.68246	 -0.457764	
8.71573	 -0.513513	
8.74899	 -0.457764	
8.78226	 -0.462944	
8.81552	 -0.518799	
8.84879	 -0.473022	
8.88206	 -0.468704	
8.91532	 -0.503540	
8.94859	 -0.473022	
8.98185	 -0.478783	
9.01512	 -0.515254	
9.04839	 -0.473022	
9.08165	 -0.463814	
9.11492	 -0.506722	
9.14819	 -0.473022	
9.18145	 -0.464104	
9.21472	 -0.505925	
9.24798	 -0.479556	
9.28125	 -0.457764	
9.31452	 -0.496813	
9.34778	 -0.486670	
9.38105	 -0.456346	
9.41431	 -0.488281	
9.44758	 -0.488281	
9.48085	 -0.458602	
9.51411	 -0.496233	
9.54738	 -0.473022	
9.58065	 -0.442505	
9.61391	 -0.511137	
9.64718	 -0.488281	
9.68044	 -0.473022	
9.71371	 -0.526686	
9.74698	 -0.488281	
9.78024	 -0.481103	
9.81351	 -0.503540	
9.84677	 -0.481296	
9.88004	 -0.503540	
9.91331	 -0.495073	
9.94657	 -0.464458	
9.97984	 -0.510138	
10.0131	 -0.510041	
10.0464	 -0.446460	
10.0796	 -0.509848	
10.1129	 -0.522174	
10.1462	 -0.463878	
10.1794	 -0.518799	
10.2127	 -0.500124	
10.246	 -0.484672	
10.2792	 -0.524527	
10.3125	 -0.524430	
10.3458	 -0.488281	
10.379	 -0.518799	
10.4123	 -0.524140	
10.4456	 -0.473022	
10.4788	 -0.503725	
10.5121	 -0.503540	
10.5454	 -0.483327	
10.5786	 -0.508398	
10.6119	 -0.534058	
10.6452	 -0.488281	
10.6784	 -0.503540	
10.7117	 -0.520645	
10.745	 -0.451254	
10.7782	 -0.538335	
10.8115	 -0.518799	
10.8448	 -0.468938	
10.878	 -0.488281	
10.9113	 -0.503540	
10.9446	 -0.446299	
10.9778	 -0.480886	
11.0111	 -0.499939	
11.0444	 -0.473022	
11.0776	 -0.511984	
11.1109	 -0.522110	
11.1442	 -0.488281	
11.1774	 -0.521916	
11.2107	 -0.537078	
11.244	 -0.512951	
11.2772	 -0.534058	
11.3105	 -0.531327	
11.3437	 -0.493549	
11.377	 -0.549316	
11.4103	 -0.544435	
11.4435	 -0.511767	
11.4768	 -0.538552	
11.5101	 -0.514498	
11.5433	 -0.473022	
11.5766	 -0.560661	
11.6099	 -0.513217	
11.6431	 -0.488281	
11.6764	 -0.520466	
11.7097	 -0.474593	
11.7429	 -0.485334	
11.7762	 -0.520176	
11.8095	 -0.487001	
11.8427	 -0.487098	
11.876	 -0.517712	
11.9093	 -0.488281	
11.9425	 -0.473022	
11.9758	 -0.534058	
12.0091	 -0.471622	
12.0423	 -0.472419	
12.0756	 -0.518292	
12.1089	 -0.473022	
12.1421	 -0.458077	
12.1754	 -0.488715	
12.2087	 -0.473143	
12.2419	 -0.457740	
12.2752	 -0.518799	
12.3085	 -0.503030	
12.3417	 -0.458030	
12.375	 -0.503903	
12.4083	 -0.487821	
12.4415	 -0.457764	
12.4748	 -0.517492	
12.5081	 -0.473772	
12.5413	 -0.457764	
12.5746	 -0.490168	
12.6079	 -0.487241	
12.6411	 -0.457764	
12.6744	 -0.535291	
12.7077	 -0.473022	
12.7409	 -0.457764	
12.7742	 -0.518799	
12.8075	 -0.461004	
12.8407	 -0.473022	
12.874	 -0.518799	
12.9073	 -0.490192	
12.9405	 -0.484267	
12.9738	 -0.516695	
13.0071	 -0.499139	
13.0403	 -0.503540	
13.0736	 -0.518799	
13.1069	 -0.462744	
13.1401	 -0.511038	
13.1734	 -0.534058	
13.2067	 -0.485501	
13.2399	 -0.515922	
13.2732	 -0.528110	
13.3065	 -0.476093	
13.3397	 -0.527723	
13.373	 -0.522063	
13.4062	 -0.496819	
13.4395	 -0.510455	
13.4728	 -0.557467	
13.506	 -0.515148	
13.5393	 -0.553064	
13.5726	 -0.549316	
13.6058	 -0.488281	
13.6391	 -0.522836	
13.6724	 -0.529924	
13.7056	 -0.507771	
13.7389	 -0.549316	
13.7722	 -0.544892	
13.8054	 -0.514278	
13.8387	 -0.559958	
13.872	 -0.534058	
13.9052	 -0.503540	
13.9385	 -0.544409	
13.9718	 -0.544312	
14.005	 -0.503540	
14.0383	 -0.528860	
14.0716	 -0.524093	
14.1048	 -0.493672	
14.1381	 -0.513311	
14.1714	 -0.522889	
14.2046	 -0.473022	
